<?xml version="1.0" encoding="UTF-8" standalone="no"?>
<!DOCTYPE svg PUBLIC "-//W3C//DTD SVG 1.1//EN"
 "http://www.w3.org/Graphics/SVG/1.1/DTD/svg11.dtd">
<!-- Generated by graphviz version 3.0.0 (20220226.1711)
 -->
<!-- Title: dependency&#45;cruiser output Pages: 1 -->
<svg width="648pt" height="390pt"
 viewBox="0.00 0.00 648.00 390.00" xmlns="http://www.w3.org/2000/svg" xmlns:xlink="http://www.w3.org/1999/xlink">
<g id="graph0" class="graph" transform="scale(1 1) rotate(0) translate(4 386)">
<title>dependency&#45;cruiser output</title>
<polygon fill="white" stroke="transparent" points="-4,4 -4,-386 644,-386 644,4 -4,4"/>
<g id="clust1" class="cluster">
<title>cluster_dist</title>
<path fill="#ffffff" stroke="black" stroke-width="2" d="M20,-8C20,-8 620,-8 620,-8 626,-8 632,-14 632,-20 632,-20 632,-362 632,-362 632,-368 626,-374 620,-374 620,-374 20,-374 20,-374 14,-374 8,-368 8,-362 8,-362 8,-20 8,-20 8,-14 14,-8 20,-8"/>
<text text-anchor="middle" x="320" y="-362.8" font-family="Helvetica,sans-Serif" font-weight="bold" font-size="9.00">dist</text>
</g>
<g id="clust2" class="cluster">
<title>cluster_dist/auth</title>
<path fill="#ffffff" stroke="black" stroke-width="2" d="M212.5,-16C212.5,-16 504.5,-16 504.5,-16 510.5,-16 516.5,-22 516.5,-28 516.5,-28 516.5,-146 516.5,-146 516.5,-152 510.5,-158 504.5,-158 504.5,-158 212.5,-158 212.5,-158 206.5,-158 200.5,-152 200.5,-146 200.5,-146 200.5,-28 200.5,-28 200.5,-22 206.5,-16 212.5,-16"/>
<text text-anchor="middle" x="358.5" y="-146.8" font-family="Helvetica,sans-Serif" font-weight="bold" font-size="9.00">auth</text>
</g>
<g id="clust3" class="cluster">
<title>cluster_dist/bookmark</title>
<path fill="#ffffff" stroke="black" stroke-width="2" d="M205,-166C205,-166 304,-166 304,-166 310,-166 316,-172 316,-178 316,-178 316,-236 316,-236 316,-242 310,-248 304,-248 304,-248 205,-248 205,-248 199,-248 193,-242 193,-236 193,-236 193,-178 193,-178 193,-172 199,-166 205,-166"/>
<text text-anchor="middle" x="254.5" y="-236.8" font-family="Helvetica,sans-Serif" font-weight="bold" font-size="9.00">bookmark</text>
</g>
<g id="clust4" class="cluster">
<title>cluster_dist/prisma</title>
<path fill="#ffffff" stroke="black" stroke-width="2" d="M428,-166C428,-166 612,-166 612,-166 618,-166 624,-172 624,-178 624,-178 624,-266 624,-266 624,-272 618,-278 612,-278 612,-278 428,-278 428,-278 422,-278 416,-272 416,-266 416,-266 416,-178 416,-178 416,-172 422,-166 428,-166"/>
<text text-anchor="middle" x="520" y="-266.8" font-family="Helvetica,sans-Serif" font-weight="bold" font-size="9.00">prisma</text>
</g>
<g id="clust5" class="cluster">
<title>cluster_dist/user</title>
<path fill="#ffffff" stroke="black" stroke-width="2" d="M216.5,-266C216.5,-266 292.5,-266 292.5,-266 298.5,-266 304.5,-272 304.5,-278 304.5,-278 304.5,-336 304.5,-336 304.5,-342 298.5,-348 292.5,-348 292.5,-348 216.5,-348 216.5,-348 210.5,-348 204.5,-342 204.5,-336 204.5,-336 204.5,-278 204.5,-278 204.5,-272 210.5,-266 216.5,-266"/>
<text text-anchor="middle" x="254.5" y="-336.8" font-family="Helvetica,sans-Serif" font-weight="bold" font-size="9.00">user</text>
</g>
<!-- dist/app.module.d.ts -->
<g id="node1" class="node">
<title>dist/app.module.d.ts</title>
<g id="a_node1"><a xlink:href="dist/app.module.d.ts" xlink:title="app.module.d.ts">
<path fill="#ccffcc" stroke="black" d="M92,-339C92,-339 22,-339 22,-339 19,-339 16,-336 16,-333 16,-333 16,-327 16,-327 16,-324 19,-321 22,-321 22,-321 92,-321 92,-321 95,-321 98,-324 98,-327 98,-327 98,-333 98,-333 98,-336 95,-339 92,-339"/>
<text text-anchor="start" x="24" y="-327.8" font-family="Helvetica,sans-Serif" font-size="9.00">app.module.d.ts</text>
</a>
</g>
</g>
<!-- dist/app.module.js -->
<g id="node2" class="node">
<title>dist/app.module.js</title>
<g id="a_node2"><a xlink:href="dist/app.module.js" xlink:title="app.module.js">
<path fill="#ffffcc" stroke="black" d="M179,-230C179,-230 117,-230 117,-230 114,-230 111,-227 111,-224 111,-224 111,-218 111,-218 111,-215 114,-212 117,-212 117,-212 179,-212 179,-212 182,-212 185,-215 185,-218 185,-218 185,-224 185,-224 185,-227 182,-230 179,-230"/>
<text text-anchor="start" x="119" y="-218.8" font-family="Helvetica,sans-Serif" font-size="9.00">app.module.js</text>
</a>
</g>
</g>
<!-- dist/auth/auth.module.js -->
<g id="node3" class="node">
<title>dist/auth/auth.module.js</title>
<g id="a_node3"><a xlink:href="dist/auth/auth.module.js" xlink:title="auth.module.js">
<path fill="#ffffcc" stroke="black" d="M287,-132C287,-132 222,-132 222,-132 219,-132 216,-129 216,-126 216,-126 216,-120 216,-120 216,-117 219,-114 222,-114 222,-114 287,-114 287,-114 290,-114 293,-117 293,-120 293,-120 293,-126 293,-126 293,-129 290,-132 287,-132"/>
<text text-anchor="start" x="224" y="-120.8" font-family="Helvetica,sans-Serif" font-size="9.00">auth.module.js</text>
</a>
</g>
</g>
<!-- dist/app.module.js&#45;&gt;dist/auth/auth.module.js -->
<g id="edge1" class="edge">
<title>dist/app.module.js&#45;&gt;dist/auth/auth.module.js</title>
<path fill="none" stroke="#000000" stroke-width="2" stroke-opacity="0.200000" d="M154.71,-211.59C162.39,-199.43 176.95,-178.04 193,-163 204.47,-152.25 219.15,-142.47 231.17,-135.27"/>
<polygon fill="#000000" fill-opacity="0.200000" stroke="#000000" stroke-width="2" stroke-opacity="0.200000" points="232.38,-137 236.49,-132.15 230.25,-133.38 232.38,-137"/>
</g>
<!-- dist/bookmark/bookmark.module.js -->
<g id="node4" class="node">
<title>dist/bookmark/bookmark.module.js</title>
<g id="a_node4"><a xlink:href="dist/bookmark/bookmark.module.js" xlink:title="bookmark.module.js">
<path fill="#ffffcc" stroke="black" d="M298,-222C298,-222 211,-222 211,-222 208,-222 205,-219 205,-216 205,-216 205,-210 205,-210 205,-207 208,-204 211,-204 211,-204 298,-204 298,-204 301,-204 304,-207 304,-210 304,-210 304,-216 304,-216 304,-219 301,-222 298,-222"/>
<text text-anchor="start" x="213" y="-210.8" font-family="Helvetica,sans-Serif" font-size="9.00">bookmark.module.js</text>
</a>
</g>
</g>
<!-- dist/app.module.js&#45;&gt;dist/bookmark/bookmark.module.js -->
<g id="edge2" class="edge">
<title>dist/app.module.js&#45;&gt;dist/bookmark/bookmark.module.js</title>
<path fill="none" stroke="#000000" stroke-width="2" stroke-opacity="0.200000" d="M185.26,-218.22C189.63,-217.89 194.18,-217.54 198.74,-217.19"/>
<polygon fill="#000000" fill-opacity="0.200000" stroke="#000000" stroke-width="2" stroke-opacity="0.200000" points="199.15,-219.27 204.98,-216.71 198.83,-215.08 199.15,-219.27"/>
</g>
<!-- dist/prisma/prisma.module.js -->
<g id="node5" class="node">
<title>dist/prisma/prisma.module.js</title>
<g id="a_node5"><a xlink:href="dist/prisma/prisma.module.js" xlink:title="prisma.module.js">
<path fill="#ffffcc" stroke="black" d="M508,-252C508,-252 434,-252 434,-252 431,-252 428,-249 428,-246 428,-246 428,-240 428,-240 428,-237 431,-234 434,-234 434,-234 508,-234 508,-234 511,-234 514,-237 514,-240 514,-240 514,-246 514,-246 514,-249 511,-252 508,-252"/>
<text text-anchor="start" x="436" y="-240.8" font-family="Helvetica,sans-Serif" font-size="9.00">prisma.module.js</text>
</a>
</g>
</g>
<!-- dist/app.module.js&#45;&gt;dist/prisma/prisma.module.js -->
<g id="edge3" class="edge">
<title>dist/app.module.js&#45;&gt;dist/prisma/prisma.module.js</title>
<path fill="none" stroke="#000000" stroke-width="2" stroke-opacity="0.200000" d="M158.57,-230.07C166.92,-237.32 179.75,-246.91 193,-251 234.33,-263.75 354.27,-254.64 422,-248.09"/>
<polygon fill="#000000" fill-opacity="0.200000" stroke="#000000" stroke-width="2" stroke-opacity="0.200000" points="422.21,-250.18 427.98,-247.51 421.8,-246 422.21,-250.18"/>
</g>
<!-- dist/user/user.module.js -->
<g id="node6" class="node">
<title>dist/user/user.module.js</title>
<g id="a_node6"><a xlink:href="dist/user/user.module.js" xlink:title="user.module.js">
<path fill="#ffffcc" stroke="black" d="M287,-322C287,-322 222,-322 222,-322 219,-322 216,-319 216,-316 216,-316 216,-310 216,-310 216,-307 219,-304 222,-304 222,-304 287,-304 287,-304 290,-304 293,-307 293,-310 293,-310 293,-316 293,-316 293,-319 290,-322 287,-322"/>
<text text-anchor="start" x="224" y="-310.8" font-family="Helvetica,sans-Serif" font-size="9.00">user.module.js</text>
</a>
</g>
</g>
<!-- dist/app.module.js&#45;&gt;dist/user/user.module.js -->
<g id="edge4" class="edge">
<title>dist/app.module.js&#45;&gt;dist/user/user.module.js</title>
<path fill="none" stroke="#000000" stroke-width="2" stroke-opacity="0.200000" d="M151.61,-230.2C156.73,-246.49 169.66,-280.36 193,-298 197.99,-301.77 203.8,-304.6 209.82,-306.73"/>
<polygon fill="#000000" fill-opacity="0.200000" stroke="#000000" stroke-width="2" stroke-opacity="0.200000" points="209.52,-308.84 215.88,-308.63 210.78,-304.83 209.52,-308.84"/>
</g>
<!-- dist/auth/auth.module.js&#45;&gt;dist/prisma/prisma.module.js -->
<g id="edge6" class="edge">
<title>dist/auth/auth.module.js&#45;&gt;dist/prisma/prisma.module.js</title>
<path fill="none" stroke="#000000" stroke-width="2" stroke-opacity="0.200000" d="M292.37,-132.02C327.16,-142.42 378.29,-162.92 408,-199 416.5,-209.32 406.55,-218.54 416,-228 417.89,-229.9 420.01,-231.56 422.27,-233.02"/>
<polygon fill="#000000" fill-opacity="0.200000" stroke="#000000" stroke-width="2" stroke-opacity="0.200000" points="421.52,-235 427.78,-236.06 423.54,-231.32 421.52,-235"/>
</g>
<!-- dist/auth/auth.controller.js -->
<g id="node8" class="node">
<title>dist/auth/auth.controller.js</title>
<g id="a_node8"><a xlink:href="dist/auth/auth.controller.js" xlink:title="auth.controller.js">
<path fill="#ffffcc" stroke="black" d="M402,-114C402,-114 330,-114 330,-114 327,-114 324,-111 324,-108 324,-108 324,-102 324,-102 324,-99 327,-96 330,-96 330,-96 402,-96 402,-96 405,-96 408,-99 408,-102 408,-102 408,-108 408,-108 408,-111 405,-114 402,-114"/>
<text text-anchor="start" x="332" y="-102.8" font-family="Helvetica,sans-Serif" font-size="9.00">auth.controller.js</text>
</a>
</g>
</g>
<!-- dist/auth/auth.module.js&#45;&gt;dist/auth/auth.controller.js -->
<g id="edge7" class="edge">
<title>dist/auth/auth.module.js&#45;&gt;dist/auth/auth.controller.js</title>
<path fill="none" stroke="#000000" stroke-width="2" stroke-opacity="0.200000" d="M293.18,-116.81C301.07,-115.51 309.48,-114.13 317.67,-112.78"/>
<polygon fill="#000000" fill-opacity="0.200000" stroke="#000000" stroke-width="2" stroke-opacity="0.200000" points="318.3,-114.81 323.88,-111.76 317.61,-110.66 318.3,-114.81"/>
</g>
<!-- dist/auth/auth.service.js -->
<g id="node9" class="node">
<title>dist/auth/auth.service.js</title>
<g id="a_node9"><a xlink:href="dist/auth/auth.service.js" xlink:title="auth.service.js">
<path fill="#ffffcc" stroke="black" d="M502.5,-132C502.5,-132 439.5,-132 439.5,-132 436.5,-132 433.5,-129 433.5,-126 433.5,-126 433.5,-120 433.5,-120 433.5,-117 436.5,-114 439.5,-114 439.5,-114 502.5,-114 502.5,-114 505.5,-114 508.5,-117 508.5,-120 508.5,-120 508.5,-126 508.5,-126 508.5,-129 505.5,-132 502.5,-132"/>
<text text-anchor="start" x="441.5" y="-120.8" font-family="Helvetica,sans-Serif" font-size="9.00">auth.service.js</text>
</a>
</g>
</g>
<!-- dist/auth/auth.module.js&#45;&gt;dist/auth/auth.service.js -->
<g id="edge8" class="edge">
<title>dist/auth/auth.module.js&#45;&gt;dist/auth/auth.service.js</title>
<path fill="none" stroke="#000000" stroke-width="2" stroke-opacity="0.200000" d="M293.35,-123C330.8,-123 388.02,-123 427.13,-123"/>
<polygon fill="#000000" fill-opacity="0.200000" stroke="#000000" stroke-width="2" stroke-opacity="0.200000" points="427.24,-125.1 433.24,-123 427.24,-120.9 427.24,-125.1"/>
</g>
<!-- dist/prisma/prisma.service.js -->
<g id="node12" class="node">
<title>dist/prisma/prisma.service.js</title>
<g id="a_node12"><a xlink:href="dist/prisma/prisma.service.js" xlink:title="prisma.service.js">
<path fill="#ffffcc" stroke="black" d="M610,-222C610,-222 537,-222 537,-222 534,-222 531,-219 531,-216 531,-216 531,-210 531,-210 531,-207 534,-204 537,-204 537,-204 610,-204 610,-204 613,-204 616,-207 616,-210 616,-210 616,-216 616,-216 616,-219 613,-222 610,-222"/>
<text text-anchor="start" x="539" y="-210.8" font-family="Helvetica,sans-Serif" font-size="9.00">prisma.service.js</text>
</a>
</g>
</g>
<!-- dist/prisma/prisma.module.js&#45;&gt;dist/prisma/prisma.service.js -->
<g id="edge11" class="edge">
<title>dist/prisma/prisma.module.js&#45;&gt;dist/prisma/prisma.service.js</title>
<path fill="none" stroke="#000000" stroke-width="2" stroke-opacity="0.200000" d="M502.15,-234C512.79,-230.82 524.86,-227.22 535.97,-223.91"/>
<polygon fill="#000000" fill-opacity="0.200000" stroke="#000000" stroke-width="2" stroke-opacity="0.200000" points="536.87,-225.83 542.02,-222.1 535.67,-221.8 536.87,-225.83"/>
</g>
<!-- dist/auth/auth.controller.d.ts -->
<g id="node7" class="node">
<title>dist/auth/auth.controller.d.ts</title>
<g id="a_node7"><a xlink:href="dist/auth/auth.controller.d.ts" xlink:title="auth.controller.d.ts">
<path fill="#ccffcc" stroke="black" d="M294.5,-102C294.5,-102 214.5,-102 214.5,-102 211.5,-102 208.5,-99 208.5,-96 208.5,-96 208.5,-90 208.5,-90 208.5,-87 211.5,-84 214.5,-84 214.5,-84 294.5,-84 294.5,-84 297.5,-84 300.5,-87 300.5,-90 300.5,-90 300.5,-96 300.5,-96 300.5,-99 297.5,-102 294.5,-102"/>
<text text-anchor="start" x="216.5" y="-90.8" font-family="Helvetica,sans-Serif" font-size="9.00">auth.controller.d.ts</text>
</a>
</g>
</g>
<!-- dist/auth/auth.controller.js&#45;&gt;dist/auth/auth.service.js -->
<g id="edge5" class="edge">
<title>dist/auth/auth.controller.js&#45;&gt;dist/auth/auth.service.js</title>
<path fill="none" stroke="#000000" stroke-width="2" stroke-opacity="0.200000" d="M408,-112.17C414.32,-113.27 420.85,-114.41 427.2,-115.52"/>
<polygon fill="#000000" fill-opacity="0.200000" stroke="#000000" stroke-width="2" stroke-opacity="0.200000" points="427.2,-117.65 433.47,-116.62 427.92,-113.51 427.2,-117.65"/>
</g>
<!-- dist/auth/auth.service.js&#45;&gt;dist/prisma/prisma.service.js -->
<g id="edge9" class="edge">
<title>dist/auth/auth.service.js&#45;&gt;dist/prisma/prisma.service.js</title>
<path fill="none" stroke="#000000" stroke-width="2" stroke-opacity="0.200000" d="M482.67,-132.14C492.04,-140.19 506,-152.28 518,-163 531.62,-175.17 546.93,-189.25 557.84,-199.36"/>
<polygon fill="#000000" fill-opacity="0.200000" stroke="#000000" stroke-width="2" stroke-opacity="0.200000" points="556.7,-201.16 562.53,-203.7 559.56,-198.08 556.7,-201.16"/>
</g>
<!-- dist/auth/auth.module.d.ts -->
<g id="node10" class="node">
<title>dist/auth/auth.module.d.ts</title>
<g id="a_node10"><a xlink:href="dist/auth/auth.module.d.ts" xlink:title="auth.module.d.ts">
<path fill="#ccffcc" stroke="black" d="M290.5,-72C290.5,-72 218.5,-72 218.5,-72 215.5,-72 212.5,-69 212.5,-66 212.5,-66 212.5,-60 212.5,-60 212.5,-57 215.5,-54 218.5,-54 218.5,-54 290.5,-54 290.5,-54 293.5,-54 296.5,-57 296.5,-60 296.5,-60 296.5,-66 296.5,-66 296.5,-69 293.5,-72 290.5,-72"/>
<text text-anchor="start" x="220.5" y="-60.8" font-family="Helvetica,sans-Serif" font-size="9.00">auth.module.d.ts</text>
</a>
</g>
</g>
<!-- dist/auth/auth.service.d.ts -->
<g id="node11" class="node">
<title>dist/auth/auth.service.d.ts</title>
<g id="a_node11"><a xlink:href="dist/auth/auth.service.d.ts" xlink:title="auth.service.d.ts">
<path fill="#ccffcc" stroke="black" d="M290,-42C290,-42 219,-42 219,-42 216,-42 213,-39 213,-36 213,-36 213,-30 213,-30 213,-27 216,-24 219,-24 219,-24 290,-24 290,-24 293,-24 296,-27 296,-30 296,-30 296,-36 296,-36 296,-39 293,-42 290,-42"/>
<text text-anchor="start" x="221" y="-30.8" font-family="Helvetica,sans-Serif" font-size="9.00">auth.service.d.ts</text>
</a>
</g>
</g>
<!-- dist/bookmark/bookmark.module.d.ts -->
<g id="node13" class="node">
<title>dist/bookmark/bookmark.module.d.ts</title>
<g id="a_node13"><a xlink:href="dist/bookmark/bookmark.module.d.ts" xlink:title="bookmark.module.d.ts">
<path fill="#ccffcc" stroke="black" d="M302,-192C302,-192 207,-192 207,-192 204,-192 201,-189 201,-186 201,-186 201,-180 201,-180 201,-177 204,-174 207,-174 207,-174 302,-174 302,-174 305,-174 308,-177 308,-180 308,-180 308,-186 308,-186 308,-189 305,-192 302,-192"/>
<text text-anchor="start" x="209" y="-180.8" font-family="Helvetica,sans-Serif" font-size="9.00">bookmark.module.d.ts</text>
</a>
</g>
</g>
<!-- dist/main.d.ts -->
<g id="node14" class="node">
<title>dist/main.d.ts</title>
<g id="a_node14"><a xlink:href="dist/main.d.ts" xlink:title="main.d.ts">
<path fill="#ccffcc" stroke="black" d="M78,-293C78,-293 36,-293 36,-293 33,-293 30,-290 30,-287 30,-287 30,-281 30,-281 30,-278 33,-275 36,-275 36,-275 78,-275 78,-275 81,-275 84,-278 84,-281 84,-281 84,-287 84,-287 84,-290 81,-293 78,-293"/>
<text text-anchor="start" x="38.5" y="-281.8" font-family="Helvetica,sans-Serif" font-size="9.00">main.d.ts</text>
</a>
</g>
</g>
<!-- dist/main.js -->
<g id="node15" class="node">
<title>dist/main.js</title>
<g id="a_node15"><a xlink:href="dist/main.js" xlink:title="main.js">
<path fill="#ffffcc" stroke="black" d="M78,-230C78,-230 36,-230 36,-230 33,-230 30,-227 30,-224 30,-224 30,-218 30,-218 30,-215 33,-212 36,-212 36,-212 78,-212 78,-212 81,-212 84,-215 84,-218 84,-218 84,-224 84,-224 84,-227 81,-230 78,-230"/>
<text text-anchor="start" x="42" y="-218.8" font-family="Helvetica,sans-Serif" font-size="9.00">main.js</text>
</a>
</g>
</g>
<!-- dist/main.js&#45;&gt;dist/app.module.js -->
<g id="edge10" class="edge">
<title>dist/main.js&#45;&gt;dist/app.module.js</title>
<path fill="none" stroke="#000000" stroke-width="2" stroke-opacity="0.200000" d="M84.22,-221C90.58,-221 97.54,-221 104.44,-221"/>
<polygon fill="#000000" fill-opacity="0.200000" stroke="#000000" stroke-width="2" stroke-opacity="0.200000" points="104.74,-223.1 110.74,-221 104.74,-218.9 104.74,-223.1"/>
</g>
<!-- dist/prisma/prisma.module.d.ts -->
<g id="node16" class="node">
<title>dist/prisma/prisma.module.d.ts</title>
<g id="a_node16"><a xlink:href="dist/prisma/prisma.module.d.ts" xlink:title="prisma.module.d.ts">
<path fill="#ccffcc" stroke="black" d="M512,-222C512,-222 430,-222 430,-222 427,-222 424,-219 424,-216 424,-216 424,-210 424,-210 424,-207 427,-204 430,-204 430,-204 512,-204 512,-204 515,-204 518,-207 518,-210 518,-210 518,-216 518,-216 518,-219 515,-222 512,-222"/>
<text text-anchor="start" x="432" y="-210.8" font-family="Helvetica,sans-Serif" font-size="9.00">prisma.module.d.ts</text>
</a>
</g>
</g>
<!-- dist/prisma/prisma.service.d.ts -->
<g id="node17" class="node">
<title>dist/prisma/prisma.service.d.ts</title>
<g id="a_node17"><a xlink:href="dist/prisma/prisma.service.d.ts" xlink:title="prisma.service.d.ts">
<path fill="#ccffcc" stroke="black" d="M511,-192C511,-192 431,-192 431,-192 428,-192 425,-189 425,-186 425,-186 425,-180 425,-180 425,-177 428,-174 431,-174 431,-174 511,-174 511,-174 514,-174 517,-177 517,-180 517,-180 517,-186 517,-186 517,-189 514,-192 511,-192"/>
<text text-anchor="start" x="433" y="-180.8" font-family="Helvetica,sans-Serif" font-size="9.00">prisma.service.d.ts</text>
</a>
</g>
</g>
<!-- dist/user/user.module.d.ts -->
<g id="node18" class="node">
<title>dist/user/user.module.d.ts</title>
<g id="a_node18"><a xlink:href="dist/user/user.module.d.ts" xlink:title="user.module.d.ts">
<path fill="#ccffcc" stroke="black" d="M290.5,-292C290.5,-292 218.5,-292 218.5,-292 215.5,-292 212.5,-289 212.5,-286 212.5,-286 212.5,-280 212.5,-280 212.5,-277 215.5,-274 218.5,-274 218.5,-274 290.5,-274 290.5,-274 293.5,-274 296.5,-277 296.5,-280 296.5,-280 296.5,-286 296.5,-286 296.5,-289 293.5,-292 290.5,-292"/>
<text text-anchor="start" x="220.5" y="-280.8" font-family="Helvetica,sans-Serif" font-size="9.00">user.module.d.ts</text>
</a>
</g>
</g>
</g>
</svg>
