<?xml version="1.0" encoding="UTF-8" standalone="no"?>
<!DOCTYPE svg PUBLIC "-//W3C//DTD SVG 1.1//EN"
 "http://www.w3.org/Graphics/SVG/1.1/DTD/svg11.dtd">
<!-- Generated by graphviz version 3.0.0 (20220226.1711)
 -->
<!-- Title: dependency&#45;cruiser output Pages: 1 -->
<svg width="556pt" height="390pt"
 viewBox="0.00 0.00 556.00 390.00" xmlns="http://www.w3.org/2000/svg" xmlns:xlink="http://www.w3.org/1999/xlink">
<g id="graph0" class="graph" transform="scale(1 1) rotate(0) translate(4 386)">
<title>dependency&#45;cruiser output</title>
<polygon fill="white" stroke="transparent" points="-4,4 -4,-386 552,-386 552,4 -4,4"/>
<g id="clust1" class="cluster">
<title>cluster_dist</title>
<path fill="#ffffff" stroke="black" stroke-width="2" d="M20,-8C20,-8 528,-8 528,-8 534,-8 540,-14 540,-20 540,-20 540,-362 540,-362 540,-368 534,-374 528,-374 528,-374 20,-374 20,-374 14,-374 8,-368 8,-362 8,-362 8,-20 8,-20 8,-14 14,-8 20,-8"/>
<text text-anchor="middle" x="274" y="-362.8" font-family="Helvetica,sans-Serif" font-weight="bold" font-size="9.00">dist</text>
</g>
<g id="clust2" class="cluster">
<title>cluster_dist/auth</title>
<path fill="#ffffff" stroke="black" stroke-width="2" d="M212.5,-16C212.5,-16 515,-16 515,-16 521,-16 527,-22 527,-28 527,-28 527,-146 527,-146 527,-152 521,-158 515,-158 515,-158 212.5,-158 212.5,-158 206.5,-158 200.5,-152 200.5,-146 200.5,-146 200.5,-28 200.5,-28 200.5,-22 206.5,-16 212.5,-16"/>
<text text-anchor="middle" x="363.75" y="-146.8" font-family="Helvetica,sans-Serif" font-weight="bold" font-size="9.00">auth</text>
</g>
<g id="clust3" class="cluster">
<title>cluster_dist/bookmark</title>
<path fill="#ffffff" stroke="black" stroke-width="2" d="M205,-166C205,-166 304,-166 304,-166 310,-166 316,-172 316,-178 316,-178 316,-236 316,-236 316,-242 310,-248 304,-248 304,-248 205,-248 205,-248 199,-248 193,-242 193,-236 193,-236 193,-178 193,-178 193,-172 199,-166 205,-166"/>
<text text-anchor="middle" x="254.5" y="-236.8" font-family="Helvetica,sans-Serif" font-weight="bold" font-size="9.00">bookmark</text>
</g>
<g id="clust4" class="cluster">
<title>cluster_dist/prisma</title>
<path fill="#ffffff" stroke="black" stroke-width="2" d="M336,-173C336,-173 520,-173 520,-173 526,-173 532,-179 532,-185 532,-185 532,-273 532,-273 532,-279 526,-285 520,-285 520,-285 336,-285 336,-285 330,-285 324,-279 324,-273 324,-273 324,-185 324,-185 324,-179 330,-173 336,-173"/>
<text text-anchor="middle" x="428" y="-273.8" font-family="Helvetica,sans-Serif" font-weight="bold" font-size="9.00">prisma</text>
</g>
<g id="clust5" class="cluster">
<title>cluster_dist/user</title>
<path fill="#ffffff" stroke="black" stroke-width="2" d="M216.5,-266C216.5,-266 292.5,-266 292.5,-266 298.5,-266 304.5,-272 304.5,-278 304.5,-278 304.5,-336 304.5,-336 304.5,-342 298.5,-348 292.5,-348 292.5,-348 216.5,-348 216.5,-348 210.5,-348 204.5,-342 204.5,-336 204.5,-336 204.5,-278 204.5,-278 204.5,-272 210.5,-266 216.5,-266"/>
<text text-anchor="middle" x="254.5" y="-336.8" font-family="Helvetica,sans-Serif" font-weight="bold" font-size="9.00">user</text>
</g>
<!-- dist/app.module.d.ts -->
<g id="node1" class="node">
<title>dist/app.module.d.ts</title>
<g id="a_node1"><a xlink:href="dist/app.module.d.ts" xlink:title="app.module.d.ts">
<path fill="#ccffcc" stroke="black" d="M92,-339C92,-339 22,-339 22,-339 19,-339 16,-336 16,-333 16,-333 16,-327 16,-327 16,-324 19,-321 22,-321 22,-321 92,-321 92,-321 95,-321 98,-324 98,-327 98,-327 98,-333 98,-333 98,-336 95,-339 92,-339"/>
<text text-anchor="start" x="24" y="-327.8" font-family="Helvetica,sans-Serif" font-size="9.00">app.module.d.ts</text>
</a>
</g>
</g>
<!-- dist/app.module.js -->
<g id="node2" class="node">
<title>dist/app.module.js</title>
<g id="a_node2"><a xlink:href="dist/app.module.js" xlink:title="app.module.js">
<path fill="#ffffcc" stroke="black" d="M179,-230C179,-230 117,-230 117,-230 114,-230 111,-227 111,-224 111,-224 111,-218 111,-218 111,-215 114,-212 117,-212 117,-212 179,-212 179,-212 182,-212 185,-215 185,-218 185,-218 185,-224 185,-224 185,-227 182,-230 179,-230"/>
<text text-anchor="start" x="119" y="-218.8" font-family="Helvetica,sans-Serif" font-size="9.00">app.module.js</text>
</a>
</g>
</g>
<!-- dist/auth/auth.module.js -->
<g id="node3" class="node">
<title>dist/auth/auth.module.js</title>
<g id="a_node3"><a xlink:href="dist/auth/auth.module.js" xlink:title="auth.module.js">
<path fill="#ffffcc" stroke="black" d="M287,-132C287,-132 222,-132 222,-132 219,-132 216,-129 216,-126 216,-126 216,-120 216,-120 216,-117 219,-114 222,-114 222,-114 287,-114 287,-114 290,-114 293,-117 293,-120 293,-120 293,-126 293,-126 293,-129 290,-132 287,-132"/>
<text text-anchor="start" x="224" y="-120.8" font-family="Helvetica,sans-Serif" font-size="9.00">auth.module.js</text>
</a>
</g>
</g>
<!-- dist/app.module.js&#45;&gt;dist/auth/auth.module.js -->
<g id="edge1" class="edge">
<title>dist/app.module.js&#45;&gt;dist/auth/auth.module.js</title>
<path fill="none" stroke="#000000" stroke-width="2" stroke-opacity="0.200000" d="M154.71,-211.59C162.39,-199.43 176.95,-178.04 193,-163 204.47,-152.25 219.15,-142.47 231.17,-135.27"/>
<polygon fill="#000000" fill-opacity="0.200000" stroke="#000000" stroke-width="2" stroke-opacity="0.200000" points="232.38,-137 236.49,-132.15 230.25,-133.38 232.38,-137"/>
</g>
<!-- dist/bookmark/bookmark.module.js -->
<g id="node4" class="node">
<title>dist/bookmark/bookmark.module.js</title>
<g id="a_node4"><a xlink:href="dist/bookmark/bookmark.module.js" xlink:title="bookmark.module.js">
<path fill="#ffffcc" stroke="black" d="M298,-222C298,-222 211,-222 211,-222 208,-222 205,-219 205,-216 205,-216 205,-210 205,-210 205,-207 208,-204 211,-204 211,-204 298,-204 298,-204 301,-204 304,-207 304,-210 304,-210 304,-216 304,-216 304,-219 301,-222 298,-222"/>
<text text-anchor="start" x="213" y="-210.8" font-family="Helvetica,sans-Serif" font-size="9.00">bookmark.module.js</text>
</a>
</g>
</g>
<!-- dist/app.module.js&#45;&gt;dist/bookmark/bookmark.module.js -->
<g id="edge2" class="edge">
<title>dist/app.module.js&#45;&gt;dist/bookmark/bookmark.module.js</title>
<path fill="none" stroke="#000000" stroke-width="2" stroke-opacity="0.200000" d="M185.26,-218.22C189.63,-217.89 194.18,-217.54 198.74,-217.19"/>
<polygon fill="#000000" fill-opacity="0.200000" stroke="#000000" stroke-width="2" stroke-opacity="0.200000" points="199.15,-219.27 204.98,-216.71 198.83,-215.08 199.15,-219.27"/>
</g>
<!-- dist/prisma/prisma.module.js -->
<g id="node5" class="node">
<title>dist/prisma/prisma.module.js</title>
<g id="a_node5"><a xlink:href="dist/prisma/prisma.module.js" xlink:title="prisma.module.js">
<path fill="#ffffcc" stroke="black" d="M416,-259C416,-259 342,-259 342,-259 339,-259 336,-256 336,-253 336,-253 336,-247 336,-247 336,-244 339,-241 342,-241 342,-241 416,-241 416,-241 419,-241 422,-244 422,-247 422,-247 422,-253 422,-253 422,-256 419,-259 416,-259"/>
<text text-anchor="start" x="344" y="-247.8" font-family="Helvetica,sans-Serif" font-size="9.00">prisma.module.js</text>
</a>
</g>
</g>
<!-- dist/app.module.js&#45;&gt;dist/prisma/prisma.module.js -->
<g id="edge3" class="edge">
<title>dist/app.module.js&#45;&gt;dist/prisma/prisma.module.js</title>
<path fill="none" stroke="#000000" stroke-width="2" stroke-opacity="0.200000" d="M158.57,-230.07C166.92,-237.32 179.75,-246.91 193,-251 237.86,-264.84 291.81,-262.55 329.84,-258.03"/>
<polygon fill="#000000" fill-opacity="0.200000" stroke="#000000" stroke-width="2" stroke-opacity="0.200000" points="330.11,-260.12 335.81,-257.29 329.59,-255.95 330.11,-260.12"/>
</g>
<!-- dist/user/user.module.js -->
<g id="node6" class="node">
<title>dist/user/user.module.js</title>
<g id="a_node6"><a xlink:href="dist/user/user.module.js" xlink:title="user.module.js">
<path fill="#ffffcc" stroke="black" d="M287,-322C287,-322 222,-322 222,-322 219,-322 216,-319 216,-316 216,-316 216,-310 216,-310 216,-307 219,-304 222,-304 222,-304 287,-304 287,-304 290,-304 293,-307 293,-310 293,-310 293,-316 293,-316 293,-319 290,-322 287,-322"/>
<text text-anchor="start" x="224" y="-310.8" font-family="Helvetica,sans-Serif" font-size="9.00">user.module.js</text>
</a>
</g>
</g>
<!-- dist/app.module.js&#45;&gt;dist/user/user.module.js -->
<g id="edge4" class="edge">
<title>dist/app.module.js&#45;&gt;dist/user/user.module.js</title>
<path fill="none" stroke="#000000" stroke-width="2" stroke-opacity="0.200000" d="M151.61,-230.2C156.73,-246.49 169.66,-280.36 193,-298 197.99,-301.77 203.8,-304.6 209.82,-306.73"/>
<polygon fill="#000000" fill-opacity="0.200000" stroke="#000000" stroke-width="2" stroke-opacity="0.200000" points="209.52,-308.84 215.88,-308.63 210.78,-304.83 209.52,-308.84"/>
</g>
<!-- dist/auth/auth.module.js&#45;&gt;dist/prisma/prisma.module.js -->
<g id="edge6" class="edge">
<title>dist/auth/auth.module.js&#45;&gt;dist/prisma/prisma.module.js</title>
<path fill="none" stroke="#000000" stroke-width="2" stroke-opacity="0.200000" d="M278.23,-132.08C291.52,-138.63 307.33,-148.82 316,-163 332.79,-190.47 303.13,-210.48 324,-235 325.91,-237.24 328.12,-239.17 330.54,-240.81"/>
<polygon fill="#000000" fill-opacity="0.200000" stroke="#000000" stroke-width="2" stroke-opacity="0.200000" points="329.52,-242.64 335.76,-243.82 331.61,-239 329.52,-242.64"/>
</g>
<!-- dist/auth/auth.controller.js -->
<g id="node8" class="node">
<title>dist/auth/auth.controller.js</title>
<g id="a_node8"><a xlink:href="dist/auth/auth.controller.js" xlink:title="auth.controller.js">
<path fill="#ffffcc" stroke="black" d="M415,-114C415,-114 343,-114 343,-114 340,-114 337,-111 337,-108 337,-108 337,-102 337,-102 337,-99 340,-96 343,-96 343,-96 415,-96 415,-96 418,-96 421,-99 421,-102 421,-102 421,-108 421,-108 421,-111 418,-114 415,-114"/>
<text text-anchor="start" x="345" y="-102.8" font-family="Helvetica,sans-Serif" font-size="9.00">auth.controller.js</text>
</a>
</g>
</g>
<!-- dist/auth/auth.module.js&#45;&gt;dist/auth/auth.controller.js -->
<g id="edge7" class="edge">
<title>dist/auth/auth.module.js&#45;&gt;dist/auth/auth.controller.js</title>
<path fill="none" stroke="#000000" stroke-width="2" stroke-opacity="0.200000" d="M293.25,-117.45C305.09,-115.71 318.32,-113.77 330.73,-111.95"/>
<polygon fill="#000000" fill-opacity="0.200000" stroke="#000000" stroke-width="2" stroke-opacity="0.200000" points="331.12,-114.01 336.75,-111.06 330.51,-109.86 331.12,-114.01"/>
</g>
<!-- dist/auth/auth.service.js -->
<g id="node9" class="node">
<title>dist/auth/auth.service.js</title>
<g id="a_node9"><a xlink:href="dist/auth/auth.service.js" xlink:title="auth.service.js">
<path fill="#ffffcc" stroke="black" d="M513,-125C513,-125 450,-125 450,-125 447,-125 444,-122 444,-119 444,-119 444,-113 444,-113 444,-110 447,-107 450,-107 450,-107 513,-107 513,-107 516,-107 519,-110 519,-113 519,-113 519,-119 519,-119 519,-122 516,-125 513,-125"/>
<text text-anchor="start" x="452" y="-113.8" font-family="Helvetica,sans-Serif" font-size="9.00">auth.service.js</text>
</a>
</g>
</g>
<!-- dist/auth/auth.module.js&#45;&gt;dist/auth/auth.service.js -->
<g id="edge8" class="edge">
<title>dist/auth/auth.module.js&#45;&gt;dist/auth/auth.service.js</title>
<path fill="none" stroke="#000000" stroke-width="2" stroke-opacity="0.200000" d="M293.11,-122.94C327.67,-122.74 380.31,-122.08 426,-120 429.79,-119.83 433.73,-119.61 437.68,-119.37"/>
<polygon fill="#000000" fill-opacity="0.200000" stroke="#000000" stroke-width="2" stroke-opacity="0.200000" points="438.02,-121.45 443.87,-118.97 437.75,-117.26 438.02,-121.45"/>
</g>
<!-- dist/prisma/prisma.service.js -->
<g id="node16" class="node">
<title>dist/prisma/prisma.service.js</title>
<g id="a_node16"><a xlink:href="dist/prisma/prisma.service.js" xlink:title="prisma.service.js">
<path fill="#ffffcc" stroke="black" d="M518,-259C518,-259 445,-259 445,-259 442,-259 439,-256 439,-253 439,-253 439,-247 439,-247 439,-244 442,-241 445,-241 445,-241 518,-241 518,-241 521,-241 524,-244 524,-247 524,-247 524,-253 524,-253 524,-256 521,-259 518,-259"/>
<text text-anchor="start" x="447" y="-247.8" font-family="Helvetica,sans-Serif" font-size="9.00">prisma.service.js</text>
</a>
</g>
</g>
<!-- dist/prisma/prisma.module.js&#45;&gt;dist/prisma/prisma.service.js -->
<g id="edge10" class="edge">
<title>dist/prisma/prisma.module.js&#45;&gt;dist/prisma/prisma.service.js</title>
<path fill="none" stroke="#000000" stroke-width="2" stroke-opacity="0.200000" d="M422.04,-250C425.62,-250 429.26,-250 432.89,-250"/>
<polygon fill="#000000" fill-opacity="0.200000" stroke="#000000" stroke-width="2" stroke-opacity="0.200000" points="432.95,-252.1 438.95,-250 432.95,-247.9 432.95,-252.1"/>
</g>
<!-- dist/auth/auth.controller.d.ts -->
<g id="node7" class="node">
<title>dist/auth/auth.controller.d.ts</title>
<g id="a_node7"><a xlink:href="dist/auth/auth.controller.d.ts" xlink:title="auth.controller.d.ts">
<path fill="#ccffcc" stroke="black" d="M294.5,-102C294.5,-102 214.5,-102 214.5,-102 211.5,-102 208.5,-99 208.5,-96 208.5,-96 208.5,-90 208.5,-90 208.5,-87 211.5,-84 214.5,-84 214.5,-84 294.5,-84 294.5,-84 297.5,-84 300.5,-87 300.5,-90 300.5,-90 300.5,-96 300.5,-96 300.5,-99 297.5,-102 294.5,-102"/>
<text text-anchor="start" x="216.5" y="-90.8" font-family="Helvetica,sans-Serif" font-size="9.00">auth.controller.d.ts</text>
</a>
</g>
</g>
<!-- dist/auth/auth.controller.js&#45;&gt;dist/auth/auth.service.js -->
<g id="edge5" class="edge">
<title>dist/auth/auth.controller.js&#45;&gt;dist/auth/auth.service.js</title>
<path fill="none" stroke="#000000" stroke-width="2" stroke-opacity="0.200000" d="M421.17,-109.51C426.54,-110.09 432.06,-110.7 437.47,-111.29"/>
<polygon fill="#000000" fill-opacity="0.200000" stroke="#000000" stroke-width="2" stroke-opacity="0.200000" points="437.56,-113.41 443.75,-111.98 438.01,-109.24 437.56,-113.41"/>
</g>
<!-- dist/auth/auth.module.d.ts -->
<g id="node10" class="node">
<title>dist/auth/auth.module.d.ts</title>
<g id="a_node10"><a xlink:href="dist/auth/auth.module.d.ts" xlink:title="auth.module.d.ts">
<path fill="#ccffcc" stroke="black" d="M290.5,-72C290.5,-72 218.5,-72 218.5,-72 215.5,-72 212.5,-69 212.5,-66 212.5,-66 212.5,-60 212.5,-60 212.5,-57 215.5,-54 218.5,-54 218.5,-54 290.5,-54 290.5,-54 293.5,-54 296.5,-57 296.5,-60 296.5,-60 296.5,-66 296.5,-66 296.5,-69 293.5,-72 290.5,-72"/>
<text text-anchor="start" x="220.5" y="-60.8" font-family="Helvetica,sans-Serif" font-size="9.00">auth.module.d.ts</text>
</a>
</g>
</g>
<!-- dist/auth/auth.service.d.ts -->
<g id="node11" class="node">
<title>dist/auth/auth.service.d.ts</title>
<g id="a_node11"><a xlink:href="dist/auth/auth.service.d.ts" xlink:title="auth.service.d.ts">
<path fill="#ccffcc" stroke="black" d="M290,-42C290,-42 219,-42 219,-42 216,-42 213,-39 213,-36 213,-36 213,-30 213,-30 213,-27 216,-24 219,-24 219,-24 290,-24 290,-24 293,-24 296,-27 296,-30 296,-30 296,-36 296,-36 296,-39 293,-42 290,-42"/>
<text text-anchor="start" x="221" y="-30.8" font-family="Helvetica,sans-Serif" font-size="9.00">auth.service.d.ts</text>
</a>
</g>
</g>
<!-- dist/bookmark/bookmark.module.d.ts -->
<g id="node12" class="node">
<title>dist/bookmark/bookmark.module.d.ts</title>
<g id="a_node12"><a xlink:href="dist/bookmark/bookmark.module.d.ts" xlink:title="bookmark.module.d.ts">
<path fill="#ccffcc" stroke="black" d="M302,-192C302,-192 207,-192 207,-192 204,-192 201,-189 201,-186 201,-186 201,-180 201,-180 201,-177 204,-174 207,-174 207,-174 302,-174 302,-174 305,-174 308,-177 308,-180 308,-180 308,-186 308,-186 308,-189 305,-192 302,-192"/>
<text text-anchor="start" x="209" y="-180.8" font-family="Helvetica,sans-Serif" font-size="9.00">bookmark.module.d.ts</text>
</a>
</g>
</g>
<!-- dist/main.d.ts -->
<g id="node13" class="node">
<title>dist/main.d.ts</title>
<g id="a_node13"><a xlink:href="dist/main.d.ts" xlink:title="main.d.ts">
<path fill="#ccffcc" stroke="black" d="M78,-293C78,-293 36,-293 36,-293 33,-293 30,-290 30,-287 30,-287 30,-281 30,-281 30,-278 33,-275 36,-275 36,-275 78,-275 78,-275 81,-275 84,-278 84,-281 84,-281 84,-287 84,-287 84,-290 81,-293 78,-293"/>
<text text-anchor="start" x="38.5" y="-281.8" font-family="Helvetica,sans-Serif" font-size="9.00">main.d.ts</text>
</a>
</g>
</g>
<!-- dist/main.js -->
<g id="node14" class="node">
<title>dist/main.js</title>
<g id="a_node14"><a xlink:href="dist/main.js" xlink:title="main.js">
<path fill="#ffffcc" stroke="black" d="M78,-230C78,-230 36,-230 36,-230 33,-230 30,-227 30,-224 30,-224 30,-218 30,-218 30,-215 33,-212 36,-212 36,-212 78,-212 78,-212 81,-212 84,-215 84,-218 84,-218 84,-224 84,-224 84,-227 81,-230 78,-230"/>
<text text-anchor="start" x="42" y="-218.8" font-family="Helvetica,sans-Serif" font-size="9.00">main.js</text>
</a>
</g>
</g>
<!-- dist/main.js&#45;&gt;dist/app.module.js -->
<g id="edge9" class="edge">
<title>dist/main.js&#45;&gt;dist/app.module.js</title>
<path fill="none" stroke="#000000" stroke-width="2" stroke-opacity="0.200000" d="M84.22,-221C90.58,-221 97.54,-221 104.44,-221"/>
<polygon fill="#000000" fill-opacity="0.200000" stroke="#000000" stroke-width="2" stroke-opacity="0.200000" points="104.74,-223.1 110.74,-221 104.74,-218.9 104.74,-223.1"/>
</g>
<!-- dist/prisma/prisma.module.d.ts -->
<g id="node15" class="node">
<title>dist/prisma/prisma.module.d.ts</title>
<g id="a_node15"><a xlink:href="dist/prisma/prisma.module.d.ts" xlink:title="prisma.module.d.ts">
<path fill="#ccffcc" stroke="black" d="M420,-229C420,-229 338,-229 338,-229 335,-229 332,-226 332,-223 332,-223 332,-217 332,-217 332,-214 335,-211 338,-211 338,-211 420,-211 420,-211 423,-211 426,-214 426,-217 426,-217 426,-223 426,-223 426,-226 423,-229 420,-229"/>
<text text-anchor="start" x="340" y="-217.8" font-family="Helvetica,sans-Serif" font-size="9.00">prisma.module.d.ts</text>
</a>
</g>
</g>
<!-- dist/prisma/prisma.service.d.ts -->
<g id="node17" class="node">
<title>dist/prisma/prisma.service.d.ts</title>
<g id="a_node17"><a xlink:href="dist/prisma/prisma.service.d.ts" xlink:title="prisma.service.d.ts">
<path fill="#ccffcc" stroke="black" d="M419,-199C419,-199 339,-199 339,-199 336,-199 333,-196 333,-193 333,-193 333,-187 333,-187 333,-184 336,-181 339,-181 339,-181 419,-181 419,-181 422,-181 425,-184 425,-187 425,-187 425,-193 425,-193 425,-196 422,-199 419,-199"/>
<text text-anchor="start" x="341" y="-187.8" font-family="Helvetica,sans-Serif" font-size="9.00">prisma.service.d.ts</text>
</a>
</g>
</g>
<!-- dist/user/user.module.d.ts -->
<g id="node18" class="node">
<title>dist/user/user.module.d.ts</title>
<g id="a_node18"><a xlink:href="dist/user/user.module.d.ts" xlink:title="user.module.d.ts">
<path fill="#ccffcc" stroke="black" d="M290.5,-292C290.5,-292 218.5,-292 218.5,-292 215.5,-292 212.5,-289 212.5,-286 212.5,-286 212.5,-280 212.5,-280 212.5,-277 215.5,-274 218.5,-274 218.5,-274 290.5,-274 290.5,-274 293.5,-274 296.5,-277 296.5,-280 296.5,-280 296.5,-286 296.5,-286 296.5,-289 293.5,-292 290.5,-292"/>
<text text-anchor="start" x="220.5" y="-280.8" font-family="Helvetica,sans-Serif" font-size="9.00">user.module.d.ts</text>
</a>
</g>
</g>
</g>
</svg>
